# xmcd
#
# Track frame offsets:
#	150
#	16881
#	34561
#	52612
#	66790
#	81231
#	98530
#	116876
#	132999
#	150235
#	168414
#	185808
#	201187
#	215808
#	229907
#	248410
#
# Disc length: 3562 seconds
#
# Revision: 1
# Processed by: cddbd v1.5.2PL0 Copyright (c) Steve Scherf et al.
# Submitted via: audiograbber 1.83.01
#
DISCID=ce0de810
DTITLE=Various Artist - CDX Volume 549 (July 2, 2012)
DYEAR=2012
DGENRE=Country
TTITLE0=Kip Moore - Beer Money
TTITLE1=Randy Rogers Band - One More Sad Song
TTITLE2=Don Williams - I Just Come Here For The Music (featuring Alison Krauss)
TTITLE3=Andy Gibson - Summer Back
TTITLE4=Sarah Jarosz - Annabelle Lee
TTITLE5=Colt Ford - Back (with Jake Owen) [Radio Edit]
TTITLE6=Colt Ford - Back (with Jake Owen) [Album Version]
TTITLE7=Amy Ames - Do Drop In
TTITLE8=Lucas Hoge - Do What Makes You Feel Good 
TTITLE9=J.D. Shelburne - Farmboy
TTITLE10=Chad Lee - High Horse
TTITLE11=Jon Wolfe - It All Happened In A Honky Tonk
TTITLE12=Jordan Anderson - Key To My Heart
TTITLE13=Jason Cassidy - Ride Of Your Life
TTITLE14=Burly Clyde - Southern Belle
TTITLE15=Greg Susoreny - Stay With Me
EXTD=
EXTT0=
EXTT1=
EXTT2=
EXTT3=
EXTT4=
EXTT5=
EXTT6=
EXTT7=
EXTT8=
EXTT9=
EXTT10=
EXTT11=
EXTT12=
EXTT13=
EXTT14=
EXTT15=
PLAYORDER=
